STARTFONT 2.1
FONT -Fondu-Espy Sans Bold-Medium-R-Normal--16-150-75-75-P-107-MacRoman-1
SIZE 15 75 75
FONTBOUNDINGBOX 20 20 -2 -4
COMMENT Created by Fondu from a mac NFNT/FONT resource
STARTPROPERTIES 17
FOUNDRY "Fondu"
FAMILY_NAME "Espy Sans Bold"
WEIGHT_NAME "Medium"
SLANT "R"
SETWIDTH_NAME "Normal"
ADD_STYLE_NAME ""
PIXEL_SIZE 16
POINT_SIZE 150
RESOLUTION_X 75
RESOLUTION_Y 75
SPACING "P"
AVERAGE_WIDTH 107
CHARSET_REGISTRY "MacRoman"
CHARSET_ENCODING "1"
FONT_ASCENT 16
FONT_DESCENT 4
FACE_NAME "Espy Sans Bold 16"
ENDPROPERTIES
CHARS 224
STARTCHAR space
ENCODING 32
SWIDTH 250 0
DWIDTH 4 0
BBX 0 0 -2 -4
BITMAP
ENDCHAR
STARTCHAR exclam
ENCODING 33
SWIDTH 312 0
DWIDTH 5 0
BBX 3 12 1 0
BITMAP
E0
E0
E0
E0
E0
E0
E0
E0
E0
00
E0
E0
ENDCHAR
STARTCHAR quotedbl
ENCODING 34
SWIDTH 562 0
DWIDTH 9 0
BBX 7 5 1 8
BITMAP
EE
EE
EE
66
22
ENDCHAR
STARTCHAR numbersign
ENCODING 35
SWIDTH 937 0
DWIDTH 15 0
BBX 13 11 1 0
BITMAP
0E70
0E70
1CE0
7FF8
1CE0
1CE0
39C0
FFF0
39C0
7380
7380
ENDCHAR
STARTCHAR dollar
ENCODING 36
SWIDTH 562 0
DWIDTH 9 0
BBX 7 15 1 -2
BITMAP
18
18
7E
E0
E0
F0
F8
7C
3E
1E
0E
0E
FC
30
30
ENDCHAR
STARTCHAR percent
ENCODING 37
SWIDTH 812 0
DWIDTH 13 0
BBX 11 11 1 0
BITMAP
7060
D8E0
D9C0
DB80
7700
0E00
1DC0
3B60
7360
E360
C1C0
ENDCHAR
STARTCHAR ampersand
ENCODING 38
SWIDTH 937 0
DWIDTH 15 0
BBX 14 12 1 0
BITMAP
3FC0
79E0
79E0
7BC0
3F80
3F00
7FB8
F3F0
F1E0
F1F0
FBF8
7F3C
ENDCHAR
STARTCHAR quotesingle
ENCODING 39
SWIDTH 312 0
DWIDTH 5 0
BBX 3 5 1 8
BITMAP
E0
E0
E0
60
20
ENDCHAR
STARTCHAR parenleft
ENCODING 40
SWIDTH 437 0
DWIDTH 7 0
BBX 5 15 1 -2
BITMAP
18
30
70
60
E0
E0
E0
E0
E0
E0
E0
60
70
30
18
ENDCHAR
STARTCHAR parenright
ENCODING 41
SWIDTH 437 0
DWIDTH 7 0
BBX 5 15 1 -2
BITMAP
C0
60
70
30
38
38
38
38
38
38
38
30
70
60
C0
ENDCHAR
STARTCHAR asterisk
ENCODING 42
SWIDTH 437 0
DWIDTH 7 0
BBX 5 6 1 7
BITMAP
20
A8
70
70
A8
20
ENDCHAR
STARTCHAR plus
ENCODING 43
SWIDTH 625 0
DWIDTH 10 0
BBX 8 8 1 2
BITMAP
18
18
18
FF
FF
18
18
18
ENDCHAR
STARTCHAR comma
ENCODING 44
SWIDTH 312 0
DWIDTH 5 0
BBX 3 4 1 -2
BITMAP
E0
E0
60
C0
ENDCHAR
STARTCHAR hyphen
ENCODING 45
SWIDTH 562 0
DWIDTH 9 0
BBX 7 2 1 5
BITMAP
FE
FE
ENDCHAR
STARTCHAR period
ENCODING 46
SWIDTH 312 0
DWIDTH 5 0
BBX 3 2 1 0
BITMAP
E0
E0
ENDCHAR
STARTCHAR slash
ENCODING 47
SWIDTH 625 0
DWIDTH 10 0
BBX 10 14 0 -2
BITMAP
01C0
0380
0380
0700
0700
0E00
0E00
1C00
1C00
3800
3800
7000
7000
E000
ENDCHAR
STARTCHAR zero
ENCODING 48
SWIDTH 687 0
DWIDTH 11 0
BBX 10 12 1 0
BITMAP
3F00
7380
F3C0
F3C0
F3C0
F3C0
F3C0
F3C0
F3C0
F3C0
7380
3F00
ENDCHAR
STARTCHAR one
ENCODING 49
SWIDTH 687 0
DWIDTH 11 0
BBX 7 12 1 0
BITMAP
1E
3E
7E
DE
1E
1E
1E
1E
1E
1E
1E
1E
ENDCHAR
STARTCHAR two
ENCODING 50
SWIDTH 687 0
DWIDTH 11 0
BBX 9 12 1 0
BITMAP
7F00
EF80
C780
0780
0780
0F00
1E00
3C00
7800
F000
FF80
FF80
ENDCHAR
STARTCHAR three
ENCODING 51
SWIDTH 687 0
DWIDTH 11 0
BBX 10 12 1 0
BITMAP
7F00
E780
C3C0
03C0
0780
1F00
0700
0380
03C0
C3C0
E7C0
7F80
ENDCHAR
STARTCHAR four
ENCODING 52
SWIDTH 687 0
DWIDTH 11 0
BBX 10 12 1 0
BITMAP
0780
0F80
1F80
3780
6780
C780
C780
FFC0
0780
0780
0780
0780
ENDCHAR
STARTCHAR five
ENCODING 53
SWIDTH 687 0
DWIDTH 11 0
BBX 9 12 1 0
BITMAP
FF00
FF00
C000
C000
C000
FF00
0F80
0780
0780
0780
CF00
7E00
ENDCHAR
STARTCHAR six
ENCODING 54
SWIDTH 687 0
DWIDTH 11 0
BBX 10 12 1 0
BITMAP
1E00
3800
7000
F000
FF00
F380
F3C0
F3C0
F3C0
F3C0
7380
3F00
ENDCHAR
STARTCHAR seven
ENCODING 55
SWIDTH 625 0
DWIDTH 10 0
BBX 9 12 1 0
BITMAP
FF80
FF80
0780
0700
0E00
1E00
3C00
3C00
7800
7800
7800
7800
ENDCHAR
STARTCHAR eight
ENCODING 56
SWIDTH 687 0
DWIDTH 11 0
BBX 10 12 1 0
BITMAP
7F80
F3C0
F3C0
F3C0
F3C0
7F80
F3C0
F3C0
F3C0
F3C0
F3C0
7F80
ENDCHAR
STARTCHAR nine
ENCODING 57
SWIDTH 687 0
DWIDTH 11 0
BBX 10 12 1 0
BITMAP
3F00
7380
F3C0
F3C0
F3C0
F3C0
73C0
3FC0
03C0
0380
0700
1E00
ENDCHAR
STARTCHAR colon
ENCODING 58
SWIDTH 312 0
DWIDTH 5 0
BBX 3 8 1 0
BITMAP
E0
E0
00
00
00
00
E0
E0
ENDCHAR
STARTCHAR semicolon
ENCODING 59
SWIDTH 312 0
DWIDTH 5 0
BBX 3 10 1 -2
BITMAP
E0
E0
00
00
00
00
E0
E0
60
C0
ENDCHAR
STARTCHAR less
ENCODING 60
SWIDTH 750 0
DWIDTH 12 0
BBX 10 7 1 2
BITMAP
03C0
0F00
3C00
F000
3C00
0F00
03C0
ENDCHAR
STARTCHAR equal
ENCODING 61
SWIDTH 687 0
DWIDTH 11 0
BBX 9 5 1 3
BITMAP
FF80
FF80
0000
FF80
FF80
ENDCHAR
STARTCHAR greater
ENCODING 62
SWIDTH 750 0
DWIDTH 12 0
BBX 10 7 1 2
BITMAP
F000
3C00
0F00
03C0
0F00
3C00
F000
ENDCHAR
STARTCHAR question
ENCODING 63
SWIDTH 500 0
DWIDTH 8 0
BBX 7 12 0 0
BITMAP
FC
1E
0E
0E
1E
3C
78
70
70
00
70
70
ENDCHAR
STARTCHAR at
ENCODING 64
SWIDTH 937 0
DWIDTH 15 0
BBX 13 10 1 0
BITMAP
1F80
39E0
6070
E738
EDB8
EDB8
E6F0
7000
3800
0F80
ENDCHAR
STARTCHAR A
ENCODING 65
SWIDTH 812 0
DWIDTH 13 0
BBX 13 12 0 0
BITMAP
0780
0780
0FC0
0BC0
1BC0
11E0
31E0
20F0
7FF0
40F0
C078
C078
ENDCHAR
STARTCHAR B
ENCODING 66
SWIDTH 812 0
DWIDTH 13 0
BBX 11 12 1 0
BITMAP
FF80
F3C0
F1C0
F1C0
F380
FF00
F3C0
F1E0
F1E0
F1E0
F3E0
FFC0
ENDCHAR
STARTCHAR C
ENCODING 67
SWIDTH 750 0
DWIDTH 12 0
BBX 10 12 1 0
BITMAP
1FC0
7C00
7800
F000
F000
F000
F000
F000
F000
7800
7C00
1FC0
ENDCHAR
STARTCHAR D
ENCODING 68
SWIDTH 875 0
DWIDTH 14 0
BBX 12 12 1 0
BITMAP
FF80
F3E0
F1E0
F0F0
F0F0
F0F0
F0F0
F0F0
F0F0
F1E0
F3E0
FF80
ENDCHAR
STARTCHAR E
ENCODING 69
SWIDTH 687 0
DWIDTH 11 0
BBX 9 12 1 0
BITMAP
FF80
F000
F000
F000
F000
FF00
F000
F000
F000
F000
F000
FF80
ENDCHAR
STARTCHAR F
ENCODING 70
SWIDTH 625 0
DWIDTH 10 0
BBX 9 12 1 0
BITMAP
FF80
F000
F000
F000
F000
FF00
F000
F000
F000
F000
F000
F000
ENDCHAR
STARTCHAR G
ENCODING 71
SWIDTH 875 0
DWIDTH 14 0
BBX 12 12 1 0
BITMAP
1FE0
7C00
7800
F000
F000
F000
F1F0
F0F0
F0F0
78F0
7CF0
1FF0
ENDCHAR
STARTCHAR H
ENCODING 72
SWIDTH 875 0
DWIDTH 14 0
BBX 12 12 1 0
BITMAP
F0F0
F0F0
F0F0
F0F0
F0F0
FFF0
F0F0
F0F0
F0F0
F0F0
F0F0
F0F0
ENDCHAR
STARTCHAR I
ENCODING 73
SWIDTH 375 0
DWIDTH 6 0
BBX 4 12 1 0
BITMAP
F0
F0
F0
F0
F0
F0
F0
F0
F0
F0
F0
F0
ENDCHAR
STARTCHAR J
ENCODING 74
SWIDTH 562 0
DWIDTH 9 0
BBX 8 12 0 0
BITMAP
0F
0F
0F
0F
0F
0F
0F
0F
0F
0F
1F
FE
ENDCHAR
STARTCHAR K
ENCODING 75
SWIDTH 812 0
DWIDTH 13 0
BBX 12 12 1 0
BITMAP
F0E0
F1C0
F380
F700
FE00
FC00
FE00
FF00
F780
F3C0
F1E0
F0F0
ENDCHAR
STARTCHAR L
ENCODING 76
SWIDTH 625 0
DWIDTH 10 0
BBX 9 12 1 0
BITMAP
F000
F000
F000
F000
F000
F000
F000
F000
F000
F000
F000
FF80
ENDCHAR
STARTCHAR M
ENCODING 77
SWIDTH 1125 0
DWIDTH 18 0
BBX 16 12 1 0
BITMAP
F00F
F81F
F81F
FC3F
DC2F
DE6F
CE4F
CFCF
C78F
C78F
C30F
C30F
ENDCHAR
STARTCHAR N
ENCODING 78
SWIDTH 812 0
DWIDTH 13 0
BBX 11 12 1 0
BITMAP
E060
F060
F860
FC60
FE60
DF60
CFE0
C7E0
C3E0
C1E0
C0E0
C060
ENDCHAR
STARTCHAR O
ENCODING 79
SWIDTH 937 0
DWIDTH 15 0
BBX 13 12 1 0
BITMAP
1FC0
78F0
78F0
F078
F078
F078
F078
F078
F078
78F0
78F0
1FC0
ENDCHAR
STARTCHAR P
ENCODING 80
SWIDTH 750 0
DWIDTH 12 0
BBX 11 12 1 0
BITMAP
FF80
F3C0
F1E0
F1E0
F1E0
F1E0
F3C0
FF80
F000
F000
F000
F000
ENDCHAR
STARTCHAR Q
ENCODING 81
SWIDTH 937 0
DWIDTH 15 0
BBX 13 15 1 -3
BITMAP
1FC0
78F0
78F0
F078
F078
F078
F078
F078
F078
78F0
78F0
1FC0
0780
03C0
00F0
ENDCHAR
STARTCHAR R
ENCODING 82
SWIDTH 812 0
DWIDTH 13 0
BBX 12 12 1 0
BITMAP
FF80
F3C0
F1E0
F1E0
F1E0
F3C0
FF80
FF00
F780
F3C0
F1E0
F0F0
ENDCHAR
STARTCHAR S
ENCODING 83
SWIDTH 687 0
DWIDTH 11 0
BBX 9 12 1 0
BITMAP
3F00
7000
F000
F800
FE00
7F00
3F80
0F80
0780
0780
0F00
FE00
ENDCHAR
STARTCHAR T
ENCODING 84
SWIDTH 625 0
DWIDTH 10 0
BBX 10 12 0 0
BITMAP
FFC0
1E00
1E00
1E00
1E00
1E00
1E00
1E00
1E00
1E00
1E00
1E00
ENDCHAR
STARTCHAR U
ENCODING 85
SWIDTH 812 0
DWIDTH 13 0
BBX 11 12 1 0
BITMAP
F060
F060
F060
F060
F060
F060
F060
F060
F060
F060
78C0
3F80
ENDCHAR
STARTCHAR V
ENCODING 86
SWIDTH 750 0
DWIDTH 12 0
BBX 12 12 0 0
BITMAP
F030
F030
7820
7860
7C60
3C40
3CC0
1E80
1F80
1F80
0F00
0F00
ENDCHAR
STARTCHAR W
ENCODING 87
SWIDTH 1125 0
DWIDTH 18 0
BBX 18 12 0 0
BITMAP
F060C0
F060C0
F0F0C0
78F080
78F980
79F980
3DFD00
3D3D00
3F3F00
1E1E00
1E1E00
1E1E00
ENDCHAR
STARTCHAR X
ENCODING 88
SWIDTH 750 0
DWIDTH 12 0
BBX 12 12 0 0
BITMAP
F070
F870
78E0
3CC0
3F80
1F00
0F80
1FC0
33C0
71E0
E1F0
E0F0
ENDCHAR
STARTCHAR Y
ENCODING 89
SWIDTH 750 0
DWIDTH 12 0
BBX 12 12 0 0
BITMAP
F030
F030
7860
3CC0
3D80
1F00
0F00
0F00
0F00
0F00
0F00
0F00
ENDCHAR
STARTCHAR Z
ENCODING 90
SWIDTH 750 0
DWIDTH 12 0
BBX 10 12 1 0
BITMAP
FFC0
03C0
03C0
0780
0F00
1E00
3E00
3C00
7800
F000
F000
FFC0
ENDCHAR
STARTCHAR bracketleft
ENCODING 91
SWIDTH 437 0
DWIDTH 7 0
BBX 5 15 1 -2
BITMAP
F8
E0
E0
E0
E0
E0
E0
E0
E0
E0
E0
E0
E0
E0
F8
ENDCHAR
STARTCHAR backslash
ENCODING 92
SWIDTH 500 0
DWIDTH 8 0
BBX 8 12 0 0
BITMAP
E0
E0
70
70
38
38
1C
1C
0E
0E
07
07
ENDCHAR
STARTCHAR bracketright
ENCODING 93
SWIDTH 437 0
DWIDTH 7 0
BBX 5 15 1 -2
BITMAP
F8
38
38
38
38
38
38
38
38
38
38
38
38
38
F8
ENDCHAR
STARTCHAR asciicircum
ENCODING 94
SWIDTH 562 0
DWIDTH 9 0
BBX 7 8 1 4
BITMAP
10
10
38
38
6C
6C
C6
C6
ENDCHAR
STARTCHAR underscore
ENCODING 95
SWIDTH 750 0
DWIDTH 12 0
BBX 12 2 0 -2
BITMAP
FFF0
FFF0
ENDCHAR
STARTCHAR grave
ENCODING 96
SWIDTH 437 0
DWIDTH 7 0
BBX 6 3 1 9
BITMAP
F0
38
0C
ENDCHAR
STARTCHAR a
ENCODING 97
SWIDTH 750 0
DWIDTH 12 0
BBX 10 9 1 0
BITMAP
7F80
07C0
03C0
7FC0
F3C0
F3C0
F3C0
F7C0
7BC0
ENDCHAR
STARTCHAR b
ENCODING 98
SWIDTH 750 0
DWIDTH 12 0
BBX 10 12 1 0
BITMAP
F000
F000
F000
F780
FFC0
F3C0
F3C0
F3C0
F3C0
F3C0
F380
FF00
ENDCHAR
STARTCHAR c
ENCODING 99
SWIDTH 625 0
DWIDTH 10 0
BBX 8 9 1 0
BITMAP
3F
78
F0
F0
F0
F0
F0
78
3F
ENDCHAR
STARTCHAR d
ENCODING 100
SWIDTH 750 0
DWIDTH 12 0
BBX 10 12 1 0
BITMAP
03C0
03C0
03C0
3FC0
73C0
F3C0
F3C0
F3C0
F3C0
F3C0
FFC0
79C0
ENDCHAR
STARTCHAR e
ENCODING 101
SWIDTH 750 0
DWIDTH 12 0
BBX 10 9 1 0
BITMAP
3F00
7380
F3C0
F3C0
FFC0
F000
F000
7800
3FC0
ENDCHAR
STARTCHAR f
ENCODING 102
SWIDTH 437 0
DWIDTH 7 0
BBX 8 12 0 0
BITMAP
3F
78
78
FE
78
78
78
78
78
78
78
78
ENDCHAR
STARTCHAR g
ENCODING 103
SWIDTH 750 0
DWIDTH 12 0
BBX 10 13 1 -4
BITMAP
3FC0
73C0
F3C0
F3C0
F3C0
F3C0
F3C0
FFC0
7BC0
03C0
03C0
0780
7F00
ENDCHAR
STARTCHAR h
ENCODING 104
SWIDTH 750 0
DWIDTH 12 0
BBX 10 12 1 0
BITMAP
F000
F000
F000
F780
FFC0
F3C0
F3C0
F3C0
F3C0
F3C0
F3C0
F3C0
ENDCHAR
STARTCHAR i
ENCODING 105
SWIDTH 375 0
DWIDTH 6 0
BBX 4 12 1 0
BITMAP
F0
F0
00
F0
F0
F0
F0
F0
F0
F0
F0
F0
ENDCHAR
STARTCHAR j
ENCODING 106
SWIDTH 375 0
DWIDTH 6 0
BBX 7 16 -2 -4
BITMAP
1E
1E
00
1E
1E
1E
1E
1E
1E
1E
1E
1E
1E
1E
3C
F8
ENDCHAR
STARTCHAR k
ENCODING 107
SWIDTH 750 0
DWIDTH 12 0
BBX 11 12 1 0
BITMAP
F000
F000
F000
F1C0
F380
F700
FE00
FF00
F780
F3C0
F1E0
F0E0
ENDCHAR
STARTCHAR l
ENCODING 108
SWIDTH 375 0
DWIDTH 6 0
BBX 4 12 1 0
BITMAP
F0
F0
F0
F0
F0
F0
F0
F0
F0
F0
F0
F0
ENDCHAR
STARTCHAR m
ENCODING 109
SWIDTH 1125 0
DWIDTH 18 0
BBX 16 9 1 0
BITMAP
F79E
FFFF
F3CF
F3CF
F3CF
F3CF
F3CF
F3CF
F3CF
ENDCHAR
STARTCHAR n
ENCODING 110
SWIDTH 750 0
DWIDTH 12 0
BBX 10 9 1 0
BITMAP
F780
FFC0
F3C0
F3C0
F3C0
F3C0
F3C0
F3C0
F3C0
ENDCHAR
STARTCHAR o
ENCODING 111
SWIDTH 750 0
DWIDTH 12 0
BBX 10 9 1 0
BITMAP
3F00
7380
F3C0
F3C0
F3C0
F3C0
F3C0
7380
3F00
ENDCHAR
STARTCHAR p
ENCODING 112
SWIDTH 750 0
DWIDTH 12 0
BBX 10 13 1 -4
BITMAP
F780
FFC0
F3C0
F3C0
F3C0
F3C0
F3C0
F380
FF00
F000
F000
F000
F000
ENDCHAR
STARTCHAR q
ENCODING 113
SWIDTH 750 0
DWIDTH 12 0
BBX 10 13 1 -4
BITMAP
3FC0
73C0
F3C0
F3C0
F3C0
F3C0
F3C0
FFC0
7BC0
03C0
03C0
03C0
03C0
ENDCHAR
STARTCHAR r
ENCODING 114
SWIDTH 562 0
DWIDTH 9 0
BBX 8 9 1 0
BITMAP
F7
FF
F8
F0
F0
F0
F0
F0
F0
ENDCHAR
STARTCHAR s
ENCODING 115
SWIDTH 625 0
DWIDTH 10 0
BBX 8 9 1 0
BITMAP
7F
F0
F0
FC
7E
1F
0F
0F
FE
ENDCHAR
STARTCHAR t
ENCODING 116
SWIDTH 500 0
DWIDTH 8 0
BBX 8 11 0 0
BITMAP
78
78
FF
78
78
78
78
78
78
7C
3F
ENDCHAR
STARTCHAR u
ENCODING 117
SWIDTH 750 0
DWIDTH 12 0
BBX 10 9 1 0
BITMAP
F3C0
F3C0
F3C0
F3C0
F3C0
F3C0
F3C0
FFC0
7DC0
ENDCHAR
STARTCHAR v
ENCODING 118
SWIDTH 687 0
DWIDTH 11 0
BBX 11 9 0 0
BITMAP
F0E0
F0E0
78C0
78C0
3D80
3D80
3F00
1F00
1F00
ENDCHAR
STARTCHAR w
ENCODING 119
SWIDTH 1000 0
DWIDTH 16 0
BBX 16 9 0 0
BITMAP
F1E3
F1E3
F1E3
79E3
79F6
7BF6
3E7C
3E7C
3E7C
ENDCHAR
STARTCHAR x
ENCODING 120
SWIDTH 812 0
DWIDTH 13 0
BBX 11 9 1 0
BITMAP
F8E0
F8C0
7D80
3F00
1F00
1F80
37C0
63E0
E3E0
ENDCHAR
STARTCHAR y
ENCODING 121
SWIDTH 687 0
DWIDTH 11 0
BBX 11 13 0 -4
BITMAP
F860
F860
78C0
3CC0
3D80
1F80
1F00
0F00
0E00
0600
0C00
1C00
3800
ENDCHAR
STARTCHAR z
ENCODING 122
SWIDTH 625 0
DWIDTH 10 0
BBX 8 9 1 0
BITMAP
FF
0F
0F
1E
3C
78
F0
F0
FF
ENDCHAR
STARTCHAR braceleft
ENCODING 123
SWIDTH 437 0
DWIDTH 7 0
BBX 5 15 1 -2
BITMAP
38
70
70
70
70
70
70
E0
70
70
70
70
70
70
38
ENDCHAR
STARTCHAR bar
ENCODING 124
SWIDTH 312 0
DWIDTH 5 0
BBX 3 15 1 -2
BITMAP
E0
E0
E0
E0
E0
E0
E0
E0
E0
E0
E0
E0
E0
E0
E0
ENDCHAR
STARTCHAR braceright
ENCODING 125
SWIDTH 437 0
DWIDTH 7 0
BBX 5 15 1 -2
BITMAP
E0
70
70
70
70
70
70
38
70
70
70
70
70
70
E0
ENDCHAR
STARTCHAR asciitilde
ENCODING 126
SWIDTH 687 0
DWIDTH 11 0
BBX 9 4 1 5
BITMAP
7880
FC80
9F80
8F00
ENDCHAR
STARTCHAR char007f
ENCODING 127
SWIDTH 0 0
DWIDTH 0 0
BBX 0 0 -2 -4
BITMAP
ENDCHAR
STARTCHAR Adieresis
ENCODING 128
SWIDTH 812 0
DWIDTH 13 0
BBX 13 15 0 0
BITMAP
0CC0
0CC0
0000
0780
0780
0FC0
0BC0
1BC0
11E0
31E0
20F0
7FF0
40F0
C078
C078
ENDCHAR
STARTCHAR Aring
ENCODING 129
SWIDTH 812 0
DWIDTH 13 0
BBX 13 16 0 0
BITMAP
0700
0D80
0D80
0700
0780
0780
0FC0
0BC0
1BC0
11E0
31E0
20F0
7FF0
40F0
C078
C078
ENDCHAR
STARTCHAR Ccedilla
ENCODING 130
SWIDTH 750 0
DWIDTH 12 0
BBX 10 15 1 -3
BITMAP
1FC0
7C00
7800
F000
F000
F000
F000
F000
F000
7800
7C00
1FC0
0600
0600
1C00
ENDCHAR
STARTCHAR Eacute
ENCODING 131
SWIDTH 687 0
DWIDTH 11 0
BBX 9 16 1 0
BITMAP
0F00
1C00
3000
0000
FF80
F000
F000
F000
F000
FF00
F000
F000
F000
F000
F000
FF80
ENDCHAR
STARTCHAR Ntilde
ENCODING 132
SWIDTH 812 0
DWIDTH 13 0
BBX 11 16 1 0
BITMAP
1C80
2E80
2700
0000
E060
F060
F860
FC60
FE60
DF60
CFE0
C7E0
C3E0
C1E0
C0E0
C060
ENDCHAR
STARTCHAR Odieresis
ENCODING 133
SWIDTH 937 0
DWIDTH 15 0
BBX 13 15 1 0
BITMAP
0CC0
0CC0
0000
1FC0
78F0
78F0
F078
F078
F078
F078
F078
F078
78F0
78F0
1FC0
ENDCHAR
STARTCHAR Udieresis
ENCODING 134
SWIDTH 812 0
DWIDTH 13 0
BBX 11 15 1 0
BITMAP
1980
1980
0000
F060
F060
F060
F060
F060
F060
F060
F060
F060
F060
78C0
3F80
ENDCHAR
STARTCHAR aacute
ENCODING 135
SWIDTH 750 0
DWIDTH 12 0
BBX 10 13 1 0
BITMAP
0780
0E00
1800
0000
7F80
07C0
03C0
7FC0
F3C0
F3C0
F3C0
F7C0
7BC0
ENDCHAR
STARTCHAR agrave
ENCODING 136
SWIDTH 750 0
DWIDTH 12 0
BBX 10 13 1 0
BITMAP
3C00
0E00
0300
0000
7F80
07C0
03C0
7FC0
F3C0
F3C0
F3C0
F7C0
7BC0
ENDCHAR
STARTCHAR acircumflex
ENCODING 137
SWIDTH 750 0
DWIDTH 12 0
BBX 10 13 1 0
BITMAP
0C00
1E00
3300
0000
7F80
07C0
03C0
7FC0
F3C0
F3C0
F3C0
F7C0
7BC0
ENDCHAR
STARTCHAR adieresis
ENCODING 138
SWIDTH 750 0
DWIDTH 12 0
BBX 10 12 1 0
BITMAP
3300
3300
0000
7F80
07C0
03C0
7FC0
F3C0
F3C0
F3C0
F7C0
7BC0
ENDCHAR
STARTCHAR atilde
ENCODING 139
SWIDTH 750 0
DWIDTH 12 0
BBX 10 13 1 0
BITMAP
1C80
2E80
2700
0000
7F80
07C0
03C0
7FC0
F3C0
F3C0
F3C0
F7C0
7BC0
ENDCHAR
STARTCHAR aring
ENCODING 140
SWIDTH 750 0
DWIDTH 12 0
BBX 10 13 1 0
BITMAP
0E00
1B00
0E00
0000
7F80
07C0
03C0
7FC0
F3C0
F3C0
F3C0
F7C0
7BC0
ENDCHAR
STARTCHAR ccedilla
ENCODING 141
SWIDTH 625 0
DWIDTH 10 0
BBX 8 12 1 -3
BITMAP
3F
78
F0
F0
F0
F0
F0
78
3F
0C
0C
38
ENDCHAR
STARTCHAR eacute
ENCODING 142
SWIDTH 750 0
DWIDTH 12 0
BBX 10 13 1 0
BITMAP
0780
0E00
1800
0000
3F00
7380
F3C0
F3C0
FFC0
F000
F000
7800
3FC0
ENDCHAR
STARTCHAR egrave
ENCODING 143
SWIDTH 750 0
DWIDTH 12 0
BBX 10 13 1 0
BITMAP
7800
1C00
0600
0000
3F00
7380
F3C0
F3C0
FFC0
F000
F000
7800
3FC0
ENDCHAR
STARTCHAR ecircumflex
ENCODING 144
SWIDTH 750 0
DWIDTH 12 0
BBX 10 13 1 0
BITMAP
0C00
1E00
3300
0000
3F00
7380
F3C0
F3C0
FFC0
F000
F000
7800
3FC0
ENDCHAR
STARTCHAR edieresis
ENCODING 145
SWIDTH 750 0
DWIDTH 12 0
BBX 10 12 1 0
BITMAP
3300
3300
0000
3F00
7380
F3C0
F3C0
FFC0
F000
F000
7800
3FC0
ENDCHAR
STARTCHAR iacute
ENCODING 146
SWIDTH 375 0
DWIDTH 6 0
BBX 6 13 0 0
BITMAP
3C
70
C0
00
78
78
78
78
78
78
78
78
78
ENDCHAR
STARTCHAR igrave
ENCODING 147
SWIDTH 375 0
DWIDTH 6 0
BBX 6 13 0 0
BITMAP
F0
38
0C
00
78
78
78
78
78
78
78
78
78
ENDCHAR
STARTCHAR icircumflex
ENCODING 148
SWIDTH 375 0
DWIDTH 6 0
BBX 6 13 0 0
BITMAP
30
78
CC
00
78
78
78
78
78
78
78
78
78
ENDCHAR
STARTCHAR idieresis
ENCODING 149
SWIDTH 375 0
DWIDTH 6 0
BBX 6 12 0 0
BITMAP
CC
CC
00
78
78
78
78
78
78
78
78
78
ENDCHAR
STARTCHAR ntilde
ENCODING 150
SWIDTH 750 0
DWIDTH 12 0
BBX 10 13 1 0
BITMAP
3900
5D00
4E00
0000
F780
FFC0
F3C0
F3C0
F3C0
F3C0
F3C0
F3C0
F3C0
ENDCHAR
STARTCHAR oacute
ENCODING 151
SWIDTH 750 0
DWIDTH 12 0
BBX 10 13 1 0
BITMAP
0780
0E00
1800
0000
3F00
7380
F3C0
F3C0
F3C0
F3C0
F3C0
7380
3F00
ENDCHAR
STARTCHAR ograve
ENCODING 152
SWIDTH 750 0
DWIDTH 12 0
BBX 10 13 1 0
BITMAP
3C00
0E00
0300
0000
3F00
7380
F3C0
F3C0
F3C0
F3C0
F3C0
7380
3F00
ENDCHAR
STARTCHAR ocircumflex
ENCODING 153
SWIDTH 750 0
DWIDTH 12 0
BBX 10 13 1 0
BITMAP
0C00
1E00
3300
0000
3F00
7380
F3C0
F3C0
F3C0
F3C0
F3C0
7380
3F00
ENDCHAR
STARTCHAR odieresis
ENCODING 154
SWIDTH 750 0
DWIDTH 12 0
BBX 10 12 1 0
BITMAP
3300
3300
0000
3F00
7380
F3C0
F3C0
F3C0
F3C0
F3C0
7380
3F00
ENDCHAR
STARTCHAR otilde
ENCODING 155
SWIDTH 750 0
DWIDTH 12 0
BBX 10 13 1 0
BITMAP
1C80
2E80
2700
0000
3F00
7380
F3C0
F3C0
F3C0
F3C0
F3C0
7380
3F00
ENDCHAR
STARTCHAR uacute
ENCODING 156
SWIDTH 750 0
DWIDTH 12 0
BBX 10 13 1 0
BITMAP
0780
0E00
1800
0000
F3C0
F3C0
F3C0
F3C0
F3C0
F3C0
F3C0
FFC0
7DC0
ENDCHAR
STARTCHAR ugrave
ENCODING 157
SWIDTH 750 0
DWIDTH 12 0
BBX 10 13 1 0
BITMAP
7800
1C00
0600
0000
F3C0
F3C0
F3C0
F3C0
F3C0
F3C0
F3C0
FFC0
7DC0
ENDCHAR
STARTCHAR ucircumflex
ENCODING 158
SWIDTH 750 0
DWIDTH 12 0
BBX 10 13 1 0
BITMAP
0C00
1E00
3300
0000
F3C0
F3C0
F3C0
F3C0
F3C0
F3C0
F3C0
FFC0
7DC0
ENDCHAR
STARTCHAR udieresis
ENCODING 159
SWIDTH 750 0
DWIDTH 12 0
BBX 10 12 1 0
BITMAP
3300
3300
0000
F3C0
F3C0
F3C0
F3C0
F3C0
F3C0
F3C0
FFC0
7DC0
ENDCHAR
STARTCHAR dagger
ENCODING 160
SWIDTH 812 0
DWIDTH 13 0
BBX 11 11 1 0
BITMAP
60C0
9120
9120
7FC0
1100
1100
1100
7FC0
9120
9120
60C0
ENDCHAR
STARTCHAR degree
ENCODING 161
SWIDTH 375 0
DWIDTH 6 0
BBX 4 4 1 8
BITMAP
60
90
90
60
ENDCHAR
STARTCHAR cent
ENCODING 162
SWIDTH 625 0
DWIDTH 10 0
BBX 8 13 1 -2
BITMAP
0C
0C
3F
78
F0
F0
F0
F0
F0
78
3F
0C
0C
ENDCHAR
STARTCHAR sterling
ENCODING 163
SWIDTH 562 0
DWIDTH 9 0
BBX 9 12 0 0
BITMAP
1F00
3800
7800
7800
7800
FE00
7800
7800
7800
7000
FF80
FF00
ENDCHAR
STARTCHAR section
ENCODING 164
SWIDTH 937 0
DWIDTH 15 0
BBX 13 13 1 -1
BITMAP
0200
0700
0F80
0780
3320
7870
F8F8
70F0
2660
0F00
0F80
0700
0200
ENDCHAR
STARTCHAR bullet
ENCODING 165
SWIDTH 500 0
DWIDTH 8 0
BBX 6 6 1 3
BITMAP
78
FC
FC
FC
FC
78
ENDCHAR
STARTCHAR paragraph
ENCODING 166
SWIDTH 625 0
DWIDTH 10 0
BBX 8 12 1 0
BITMAP
7F
FB
FB
FB
FB
7B
1B
1B
1B
1B
1B
1B
ENDCHAR
STARTCHAR germandbls
ENCODING 167
SWIDTH 937 0
DWIDTH 15 0
BBX 13 12 1 0
BITMAP
3FC0
78E0
F0E0
F1C0
F380
F780
F7E0
F3F0
F0F8
F078
F078
F7F0
ENDCHAR
STARTCHAR registered
ENCODING 168
SWIDTH 875 0
DWIDTH 14 0
BBX 12 11 1 -1
BITMAP
1F80
30C0
6060
DF30
DBB0
DF30
DB30
D9B0
6060
30C0
1F80
ENDCHAR
STARTCHAR copyright
ENCODING 169
SWIDTH 875 0
DWIDTH 14 0
BBX 12 11 1 -1
BITMAP
1F80
30C0
6060
CF30
D830
D830
D830
CF30
6060
30C0
1F80
ENDCHAR
STARTCHAR trademark
ENCODING 170
SWIDTH 875 0
DWIDTH 14 0
BBX 12 4 1 8
BITMAP
F630
6770
67F0
65B0
ENDCHAR
STARTCHAR acute
ENCODING 171
SWIDTH 437 0
DWIDTH 7 0
BBX 5 3 1 9
BITMAP
78
60
80
ENDCHAR
STARTCHAR dieresis
ENCODING 172
SWIDTH 500 0
DWIDTH 8 0
BBX 6 2 1 10
BITMAP
CC
CC
ENDCHAR
STARTCHAR notequal
ENCODING 173
SWIDTH 687 0
DWIDTH 11 0
BBX 9 9 1 1
BITMAP
0100
0200
FF80
FF80
0800
FF80
FF80
2000
4000
ENDCHAR
STARTCHAR AE
ENCODING 174
SWIDTH 1187 0
DWIDTH 19 0
BBX 18 12 0 0
BITMAP
07FFC0
077800
0E7800
0E7800
1C7800
1C7F80
387800
387800
7FF800
707800
E07800
E07FC0
ENDCHAR
STARTCHAR Oslash
ENCODING 175
SWIDTH 937 0
DWIDTH 15 0
BBX 13 12 1 0
BITMAP
1FD8
78F0
78F0
F0F8
F1F8
F378
F678
FC78
F878
78F0
78F0
DFC0
ENDCHAR
STARTCHAR infinity
ENCODING 176
SWIDTH 875 0
DWIDTH 14 0
BBX 12 5 1 4
BITMAP
73E0
EFB0
CF30
DF70
7CE0
ENDCHAR
STARTCHAR plusminus
ENCODING 177
SWIDTH 625 0
DWIDTH 10 0
BBX 8 9 1 1
BITMAP
18
18
18
FF
FF
18
18
FF
FF
ENDCHAR
STARTCHAR lessequal
ENCODING 178
SWIDTH 625 0
DWIDTH 10 0
BBX 8 8 1 1
BITMAP
0F
3C
F0
3C
0F
00
FF
FF
ENDCHAR
STARTCHAR greaterequal
ENCODING 179
SWIDTH 625 0
DWIDTH 10 0
BBX 8 8 1 1
BITMAP
F0
3C
0F
3C
F0
00
FF
FF
ENDCHAR
STARTCHAR yen
ENCODING 180
SWIDTH 875 0
DWIDTH 14 0
BBX 14 11 0 0
BITMAP
F80C
7C18
3E30
1F60
0FC0
3FF0
0780
0780
3FF0
0780
0780
ENDCHAR
STARTCHAR mu
ENCODING 181
SWIDTH 750 0
DWIDTH 12 0
BBX 10 12 1 -3
BITMAP
F3C0
F3C0
F3C0
F3C0
F3C0
F3C0
F3C0
FFC0
FDC0
E000
E000
E000
ENDCHAR
STARTCHAR partialdiff
ENCODING 182
SWIDTH 812 0
DWIDTH 13 0
BBX 11 12 1 0
BITMAP
1F00
0380
01C0
01E0
3FE0
71E0
F1E0
F1E0
F1E0
F1E0
F9C0
7F80
ENDCHAR
STARTCHAR summation
ENCODING 183
SWIDTH 625 0
DWIDTH 10 0
BBX 8 13 1 -1
BITMAP
FF
FF
FF
E1
70
38
1C
38
70
E1
FF
FF
FF
ENDCHAR
STARTCHAR product
ENCODING 184
SWIDTH 937 0
DWIDTH 15 0
BBX 13 13 1 -1
BITMAP
FFF8
78F0
78F0
78F0
78F0
78F0
78F0
78F0
78F0
78F0
78F0
78F0
FDF8
ENDCHAR
STARTCHAR pi
ENCODING 185
SWIDTH 875 0
DWIDTH 14 0
BBX 12 8 1 0
BITMAP
FFF0
79E0
79E0
79E0
79E0
79E0
79F0
F9E0
ENDCHAR
STARTCHAR integral
ENCODING 186
SWIDTH 437 0
DWIDTH 7 0
BBX 7 18 0 -4
BITMAP
1E
38
38
38
38
38
38
38
38
38
38
38
38
38
38
38
38
F0
ENDCHAR
STARTCHAR ordfeminine
ENCODING 187
SWIDTH 562 0
DWIDTH 9 0
BBX 7 7 1 5
BITMAP
7E
EE
EE
FE
6E
00
FE
ENDCHAR
STARTCHAR ordmasculine
ENCODING 188
SWIDTH 562 0
DWIDTH 9 0
BBX 7 7 1 5
BITMAP
7C
EE
EE
EE
7C
00
FE
ENDCHAR
STARTCHAR Omega
ENCODING 189
SWIDTH 937 0
DWIDTH 15 0
BBX 13 12 1 0
BITMAP
1FC0
38E0
7070
F078
F078
F078
F078
7070
38E0
18C0
D8D8
F8F8
ENDCHAR
STARTCHAR ae
ENCODING 190
SWIDTH 1125 0
DWIDTH 18 0
BBX 16 9 1 0
BITMAP
7EFC
07CE
03CF
7FCF
F3FF
F3C0
F3C0
F7E0
7BFF
ENDCHAR
STARTCHAR oslash
ENCODING 191
SWIDTH 750 0
DWIDTH 12 0
BBX 12 9 0 0
BITMAP
1FB0
39C0
79E0
7BE0
7FE0
7DE0
79E0
39C0
DF80
ENDCHAR
STARTCHAR questiondown
ENCODING 192
SWIDTH 500 0
DWIDTH 8 0
BBX 7 12 1 -3
BITMAP
1C
1C
00
1C
1C
3C
78
F0
E0
E0
F0
7E
ENDCHAR
STARTCHAR exclamdown
ENCODING 193
SWIDTH 312 0
DWIDTH 5 0
BBX 3 12 1 -3
BITMAP
E0
E0
00
E0
E0
E0
E0
E0
E0
E0
E0
E0
ENDCHAR
STARTCHAR logicalnot
ENCODING 194
SWIDTH 750 0
DWIDTH 12 0
BBX 10 5 1 3
BITMAP
FFC0
FFC0
00C0
00C0
00C0
ENDCHAR
STARTCHAR radical
ENCODING 195
SWIDTH 562 0
DWIDTH 9 0
BBX 8 14 1 -2
BITMAP
03
03
03
06
06
06
C4
CC
6C
68
38
38
10
10
ENDCHAR
STARTCHAR florin
ENCODING 196
SWIDTH 687 0
DWIDTH 11 0
BBX 13 14 -1 -2
BITMAP
00F8
01E0
01C0
03C0
0FF0
0380
0780
0780
0F00
0F00
1E00
1E00
3C00
F800
ENDCHAR
STARTCHAR approxequal
ENCODING 197
SWIDTH 687 0
DWIDTH 11 0
BBX 9 5 1 3
BITMAP
7980
CF00
0000
7980
CF00
ENDCHAR
STARTCHAR Delta
ENCODING 198
SWIDTH 875 0
DWIDTH 14 0
BBX 14 13 0 0
BITMAP
0300
0380
0780
05C0
0DC0
08E0
18E0
1070
3070
2038
6038
C01C
FFFC
ENDCHAR
STARTCHAR guillemotleft
ENCODING 199
SWIDTH 812 0
DWIDTH 13 0
BBX 11 7 1 1
BITMAP
1CE0
39C0
7380
E700
7380
39C0
1CE0
ENDCHAR
STARTCHAR guillemotright
ENCODING 200
SWIDTH 812 0
DWIDTH 13 0
BBX 11 7 1 1
BITMAP
E700
7380
39C0
1CE0
39C0
7380
E700
ENDCHAR
STARTCHAR ellipsis
ENCODING 201
SWIDTH 750 0
DWIDTH 12 0
BBX 10 2 1 0
BITMAP
CCC0
CCC0
ENDCHAR
STARTCHAR nbspace
ENCODING 202
SWIDTH 250 0
DWIDTH 4 0
BBX 0 0 -2 -4
BITMAP
ENDCHAR
STARTCHAR Agrave
ENCODING 203
SWIDTH 812 0
DWIDTH 13 0
BBX 13 16 0 0
BITMAP
1E00
0700
0180
0000
0780
0780
0FC0
0BC0
1BC0
11E0
31E0
20F0
7FF0
40F0
C078
C078
ENDCHAR
STARTCHAR Atilde
ENCODING 204
SWIDTH 812 0
DWIDTH 13 0
BBX 13 16 0 0
BITMAP
0E40
1740
1380
0000
0780
0780
0FC0
0BC0
1BC0
11E0
31E0
20F0
7FF0
40F0
C078
C078
ENDCHAR
STARTCHAR Otilde
ENCODING 205
SWIDTH 937 0
DWIDTH 15 0
BBX 13 16 1 0
BITMAP
0E40
1740
1380
0000
1FC0
78F0
78F0
F078
F078
F078
F078
F078
F078
78F0
78F0
1FC0
ENDCHAR
STARTCHAR OE
ENCODING 206
SWIDTH 1187 0
DWIDTH 19 0
BBX 17 12 1 0
BITMAP
1FFF80
78F000
78F000
F0F000
F0F000
F0FF00
F0F000
F0F000
F0F000
78F000
78F000
1FFF80
ENDCHAR
STARTCHAR oe
ENCODING 207
SWIDTH 1125 0
DWIDTH 18 0
BBX 16 9 1 0
BITMAP
3EFC
73CE
F3CF
F3CF
F3FF
F3C0
F3C0
73E0
3F7F
ENDCHAR
STARTCHAR endash
ENCODING 208
SWIDTH 812 0
DWIDTH 13 0
BBX 11 2 1 5
BITMAP
FFE0
FFE0
ENDCHAR
STARTCHAR emdash
ENCODING 209
SWIDTH 1125 0
DWIDTH 18 0
BBX 16 2 1 5
BITMAP
FFFF
FFFF
ENDCHAR
STARTCHAR quotedblleft
ENCODING 210
SWIDTH 562 0
DWIDTH 9 0
BBX 7 4 1 9
BITMAP
66
CC
EE
EE
ENDCHAR
STARTCHAR quotedblright
ENCODING 211
SWIDTH 562 0
DWIDTH 9 0
BBX 7 4 1 9
BITMAP
EE
EE
66
CC
ENDCHAR
STARTCHAR quoteleft
ENCODING 212
SWIDTH 312 0
DWIDTH 5 0
BBX 3 4 1 9
BITMAP
60
C0
E0
E0
ENDCHAR
STARTCHAR quoteright
ENCODING 213
SWIDTH 312 0
DWIDTH 5 0
BBX 3 4 1 9
BITMAP
E0
E0
60
C0
ENDCHAR
STARTCHAR divide
ENCODING 214
SWIDTH 625 0
DWIDTH 10 0
BBX 8 8 1 2
BITMAP
18
18
00
FF
FF
00
18
18
ENDCHAR
STARTCHAR lozenge
ENCODING 215
SWIDTH 562 0
DWIDTH 9 0
BBX 9 16 0 -2
BITMAP
0800
0800
1C00
3600
3600
6300
6300
C180
C180
6300
6300
3600
3600
1C00
0800
0800
ENDCHAR
STARTCHAR ydieresis
ENCODING 216
SWIDTH 687 0
DWIDTH 11 0
BBX 11 16 0 -4
BITMAP
1980
1980
0000
F860
F860
78C0
3CC0
3D80
1F80
1F00
0F00
0E00
0600
0C00
1C00
3800
ENDCHAR
STARTCHAR Ydieresis
ENCODING 217
SWIDTH 750 0
DWIDTH 12 0
BBX 12 15 0 0
BITMAP
0CC0
0CC0
0000
F030
F030
7860
3CC0
3D80
1F00
0F00
0F00
0F00
0F00
0F00
0F00
ENDCHAR
STARTCHAR fraction
ENCODING 218
SWIDTH 625 0
DWIDTH 10 0
BBX 10 14 0 -2
BITMAP
01C0
0380
0380
0700
0700
0E00
0E00
1C00
1C00
3800
3800
7000
7000
E000
ENDCHAR
STARTCHAR currency
ENCODING 219
SWIDTH 687 0
DWIDTH 11 0
BBX 9 9 1 0
BITMAP
DD80
FF80
6300
C180
C180
C180
6300
FF80
DD80
ENDCHAR
STARTCHAR guilsinglleft
ENCODING 220
SWIDTH 500 0
DWIDTH 8 0
BBX 6 7 1 1
BITMAP
1C
38
70
E0
70
38
1C
ENDCHAR
STARTCHAR guilsinglright
ENCODING 221
SWIDTH 500 0
DWIDTH 8 0
BBX 6 7 1 1
BITMAP
E0
70
38
1C
38
70
E0
ENDCHAR
STARTCHAR fi
ENCODING 222
SWIDTH 750 0
DWIDTH 12 0
BBX 11 12 0 0
BITMAP
3FE0
79E0
7800
FFE0
79E0
79E0
79E0
79E0
79E0
79E0
79E0
79E0
ENDCHAR
STARTCHAR fl
ENCODING 223
SWIDTH 812 0
DWIDTH 13 0
BBX 12 12 0 0
BITMAP
3FF0
78F0
78F0
FEF0
78F0
78F0
78F0
78F0
78F0
78F0
78F0
78F0
ENDCHAR
STARTCHAR daggerdbl
ENCODING 224
SWIDTH 812 0
DWIDTH 13 0
BBX 9 9 2 0
BITMAP
FF80
FF80
FF80
FF80
FF80
FF80
FF80
FF80
FF80
ENDCHAR
STARTCHAR periodcentered
ENCODING 225
SWIDTH 312 0
DWIDTH 5 0
BBX 3 2 1 5
BITMAP
E0
E0
ENDCHAR
STARTCHAR quotesinglbase
ENCODING 226
SWIDTH 312 0
DWIDTH 5 0
BBX 3 4 1 -2
BITMAP
E0
E0
60
C0
ENDCHAR
STARTCHAR quotedblbase
ENCODING 227
SWIDTH 562 0
DWIDTH 9 0
BBX 7 4 1 -2
BITMAP
EE
EE
66
CC
ENDCHAR
STARTCHAR perthousand
ENCODING 228
SWIDTH 1187 0
DWIDTH 19 0
BBX 17 11 1 0
BITMAP
383800
6C7000
6CE000
6DC000
3B8000
070000
0EE700
1DBD80
39BD80
71BD80
E0E700
ENDCHAR
STARTCHAR Acircumflex
ENCODING 229
SWIDTH 812 0
DWIDTH 13 0
BBX 13 16 0 0
BITMAP
0300
0780
0CC0
0000
0780
0780
0FC0
0BC0
1BC0
11E0
31E0
20F0
7FF0
40F0
C078
C078
ENDCHAR
STARTCHAR Ecircumflex
ENCODING 230
SWIDTH 687 0
DWIDTH 11 0
BBX 9 16 1 0
BITMAP
0C00
1E00
3300
0000
FF80
F000
F000
F000
F000
FF00
F000
F000
F000
F000
F000
FF80
ENDCHAR
STARTCHAR Aacute
ENCODING 231
SWIDTH 812 0
DWIDTH 13 0
BBX 13 16 0 0
BITMAP
03C0
0700
0C00
0000
0780
0780
0FC0
0BC0
1BC0
11E0
31E0
20F0
7FF0
40F0
C078
C078
ENDCHAR
STARTCHAR Edieresis
ENCODING 232
SWIDTH 687 0
DWIDTH 11 0
BBX 9 15 1 0
BITMAP
3300
3300
0000
FF80
F000
F000
F000
F000
FF00
F000
F000
F000
F000
F000
FF80
ENDCHAR
STARTCHAR Egrave
ENCODING 233
SWIDTH 687 0
DWIDTH 11 0
BBX 9 16 1 0
BITMAP
7800
1C00
0600
0000
FF80
F000
F000
F000
F000
FF00
F000
F000
F000
F000
F000
FF80
ENDCHAR
STARTCHAR Iacute
ENCODING 234
SWIDTH 375 0
DWIDTH 6 0
BBX 6 16 0 0
BITMAP
3C
70
C0
00
78
78
78
78
78
78
78
78
78
78
78
78
ENDCHAR
STARTCHAR Icircumflex
ENCODING 235
SWIDTH 375 0
DWIDTH 6 0
BBX 6 16 0 0
BITMAP
30
78
CC
00
78
78
78
78
78
78
78
78
78
78
78
78
ENDCHAR
STARTCHAR Idieresis
ENCODING 236
SWIDTH 375 0
DWIDTH 6 0
BBX 6 15 0 0
BITMAP
CC
CC
00
78
78
78
78
78
78
78
78
78
78
78
78
ENDCHAR
STARTCHAR Igrave
ENCODING 237
SWIDTH 375 0
DWIDTH 6 0
BBX 6 16 0 0
BITMAP
F0
38
0C
00
78
78
78
78
78
78
78
78
78
78
78
78
ENDCHAR
STARTCHAR Oacute
ENCODING 238
SWIDTH 937 0
DWIDTH 15 0
BBX 13 16 1 0
BITMAP
03C0
0700
0C00
0000
1FC0
78F0
78F0
F078
F078
F078
F078
F078
F078
78F0
78F0
1FC0
ENDCHAR
STARTCHAR Ocircumflex
ENCODING 239
SWIDTH 937 0
DWIDTH 15 0
BBX 13 16 1 0
BITMAP
0300
0780
0CC0
0000
1FC0
78F0
78F0
F078
F078
F078
F078
F078
F078
78F0
78F0
1FC0
ENDCHAR
STARTCHAR apple
ENCODING 240
SWIDTH 812 0
DWIDTH 13 0
BBX 11 13 1 0
BITMAP
0100
0300
0300
0200
39C0
7FE0
FFC0
FF80
FF80
7FC0
7FE0
3FC0
1980
ENDCHAR
STARTCHAR Ograve
ENCODING 241
SWIDTH 937 0
DWIDTH 15 0
BBX 13 16 1 0
BITMAP
1E00
0700
0180
0000
1FC0
78F0
78F0
F078
F078
F078
F078
F078
F078
78F0
78F0
1FC0
ENDCHAR
STARTCHAR Uacute
ENCODING 242
SWIDTH 812 0
DWIDTH 13 0
BBX 11 16 1 0
BITMAP
0780
0E00
1800
0000
F060
F060
F060
F060
F060
F060
F060
F060
F060
F060
78C0
3F80
ENDCHAR
STARTCHAR Ucircumflex
ENCODING 243
SWIDTH 812 0
DWIDTH 13 0
BBX 11 16 1 0
BITMAP
0600
0F00
1980
0000
F060
F060
F060
F060
F060
F060
F060
F060
F060
F060
78C0
3F80
ENDCHAR
STARTCHAR Ugrave
ENCODING 244
SWIDTH 812 0
DWIDTH 13 0
BBX 11 16 1 0
BITMAP
1E00
0700
0180
0000
F060
F060
F060
F060
F060
F060
F060
F060
F060
F060
78C0
3F80
ENDCHAR
STARTCHAR dotlessi
ENCODING 245
SWIDTH 375 0
DWIDTH 6 0
BBX 4 9 1 0
BITMAP
F0
F0
F0
F0
F0
F0
F0
F0
F0
ENDCHAR
STARTCHAR circumflex
ENCODING 246
SWIDTH 500 0
DWIDTH 8 0
BBX 6 3 1 9
BITMAP
30
78
CC
ENDCHAR
STARTCHAR tilde
ENCODING 247
SWIDTH 562 0
DWIDTH 9 0
BBX 7 3 1 9
BITMAP
72
BA
9C
ENDCHAR
STARTCHAR macron
ENCODING 248
SWIDTH 437 0
DWIDTH 7 0
BBX 5 2 1 9
BITMAP
F8
F8
ENDCHAR
STARTCHAR breve
ENCODING 249
SWIDTH 437 0
DWIDTH 7 0
BBX 5 3 1 9
BITMAP
88
F8
70
ENDCHAR
STARTCHAR dotaccent
ENCODING 250
SWIDTH 250 0
DWIDTH 4 0
BBX 2 2 1 9
BITMAP
C0
C0
ENDCHAR
STARTCHAR ring
ENCODING 251
SWIDTH 437 0
DWIDTH 7 0
BBX 5 4 1 9
BITMAP
70
D8
D8
70
ENDCHAR
STARTCHAR cedilla
ENCODING 252
SWIDTH 312 0
DWIDTH 5 0
BBX 4 4 0 -3
BITMAP
60
30
30
E0
ENDCHAR
STARTCHAR hungarumlaut
ENCODING 253
SWIDTH 562 0
DWIDTH 9 0
BBX 7 3 1 9
BITMAP
36
6C
D8
ENDCHAR
STARTCHAR ogonek
ENCODING 254
SWIDTH 375 0
DWIDTH 6 0
BBX 4 4 1 -3
BITMAP
60
C0
C0
70
ENDCHAR
STARTCHAR caron
ENCODING 255
SWIDTH 437 0
DWIDTH 7 0
BBX 5 3 1 9
BITMAP
D8
70
20
ENDCHAR
ENDFONT
